<svg width="198" height="26" viewBox="0 0 198 26" fill="none" xmlns="http://www.w3.org/2000/svg">
                            <path fill-rule="evenodd" clip-rule="evenodd" d="M0 0.84906V26H16.9916V21.336H6.19893V0.84906H0ZM25.6593 21.8289C26.3769 21.8289 26.9717 21.672 27.4444 21.3591C27.9172 21.0472 28.256 20.6931 28.4619 20.2998V17.2917H26.7867C24.7817 17.2917 23.7792 18.2072 23.7792 20.0382C23.7792 20.5714 23.9561 21.004 24.309 21.333C24.6628 21.6629 25.1126 21.8289 25.6583 21.8289H25.6593ZM29.2645 25.6519C29.0596 25.2696 28.8777 24.7082 28.7178 23.9668C27.6583 25.3219 26.178 25.999 24.275 25.999C22.5318 25.999 21.0516 25.4638 19.8322 24.3923C18.6128 23.3209 18.0031 21.9738 18.0031 20.3511C18.0031 18.3118 18.7447 16.7716 20.225 15.7283C21.7063 14.6861 23.8592 14.1639 26.6848 14.1639H28.4619V13.168C28.4619 11.4336 27.7263 10.5664 26.257 10.5664C24.8907 10.5664 24.207 11.2535 24.207 12.6267H18.4479C18.4479 10.8108 19.2085 9.33498 20.7297 8.20117C22.25 7.06737 24.19 6.49997 26.5469 6.49997C28.9057 6.49997 30.7688 7.08447 32.1351 8.2555C33.5024 9.42552 34.2031 11.0301 34.2371 13.0694V21.3943C34.26 23.1207 34.5219 24.4426 35.0227 25.3571V25.6519H29.2655H29.2645ZM52.525 17.9356L54.3881 6.84705H59.9074L55.5495 25.6529H50.6799L47.6214 14.4939L44.545 25.6529H39.6764L35.3185 6.84705H40.8378L42.6659 18.1961L45.6044 6.84805H49.6204L52.525 17.9356ZM67.2547 6.84705L67.4426 9.05429C68.718 7.35107 70.4781 6.49896 72.723 6.49896C74.6481 6.49896 76.0863 7.08447 77.0379 8.2555C77.9884 9.42552 78.4812 11.1871 78.5161 13.5382V25.6529H72.739V13.7817C72.739 12.832 72.5521 12.1338 72.1763 11.6871C71.8005 11.2414 71.1168 11.0191 70.1253 11.0191C68.9979 11.0191 68.1603 11.4708 67.6135 12.3742V25.6529H61.8554V6.84705H67.2547V6.84705Z" fill="#0AB463"/>
                            <mask id="mask0" mask-type="alpha" maskUnits="userSpaceOnUse" x="81" y="0" width="20" height="27">
                                <path d="M81.1818 0H100.798V26H81.1818V0Z" fill="white"/>
                            </mask>
                            <g mask="url(#mask0)">
                                <path fill-rule="evenodd" clip-rule="evenodd" d="M94.8001 18.9266C94.8001 18.0342 94.4902 17.3391 93.8685 16.8411C93.2479 16.3431 92.1574 15.827 90.5972 15.2938C89.0359 14.7606 87.7606 14.2455 86.7691 13.7465C83.5457 12.1368 81.9335 9.92357 81.9335 7.10767C81.9335 5.70627 82.3353 4.46985 83.1379 3.39741C83.9415 2.32599 85.0769 1.49098 86.5462 0.894396C88.0174 0.297816 89.6676 -0.000976562 91.5037 -0.000976562C93.2918 -0.000976562 94.895 0.323973 96.3133 0.972866C97.7326 1.62176 98.8341 2.5453 99.6197 3.7445C100.406 4.94369 100.799 6.31391 100.799 7.85516H94.8181C94.8181 6.82397 94.5082 6.02417 93.8875 5.45677C93.2658 4.88936 92.4263 4.60566 91.3668 4.60566C90.2963 4.60566 89.4497 4.84611 88.829 5.32699C88.2093 5.80788 87.8985 6.41854 87.8985 7.15999C87.8985 7.80888 88.2403 8.39741 88.923 8.92357C89.6067 9.45174 90.8091 9.99601 92.5282 10.5584C94.2484 11.1197 95.6607 11.7254 96.7661 12.3743C99.4548 13.9497 100.799 16.1228 100.799 18.8914C100.799 21.1047 99.9795 22.8431 98.3383 24.1057C96.6971 25.3682 94.4473 26 91.5877 26C89.5717 26 87.7456 25.6328 86.1104 24.8964C84.4762 24.161 83.2468 23.1529 82.4202 21.8723C81.5946 20.5916 81.1818 19.1177 81.1818 17.4487H87.1978C87.1978 18.8049 87.5417 19.8039 88.2313 20.4467C88.921 21.0906 90.0394 21.4125 91.5897 21.4125C92.5792 21.4125 93.3628 21.1942 93.9385 20.7596C94.5132 20.326 94.8011 19.7143 94.8011 18.9266" fill="#0AB463"/>
                            </g>
                            <path fill-rule="evenodd" clip-rule="evenodd" d="M109.955 2.17206V6.84711H112.996V10.9145H109.955V19.5171C109.955 20.2244 110.08 20.7163 110.33 20.994C110.58 21.2727 111.076 21.4115 111.817 21.4115C112.386 21.4115 112.864 21.3773 113.252 21.3079V25.496C112.215 25.832 111.133 25.999 110.006 25.999C108.024 25.999 106.559 25.5252 105.614 24.5745C104.668 23.6248 104.195 22.1821 104.195 20.2465V10.9145H101.838V6.84711H104.196V2.17206H109.954H109.955ZM122.43 21.829C123.148 21.829 123.744 21.6721 124.217 21.3592C124.688 21.0473 125.027 20.6932 125.233 20.2998V17.2918H123.558C121.553 17.2918 120.55 18.2073 120.55 20.0383C120.55 20.5715 120.727 21.004 121.08 21.333C121.434 21.663 121.884 21.829 122.43 21.829ZM126.036 25.6519C125.831 25.2696 125.649 24.7083 125.489 23.9668C124.429 25.322 122.949 25.999 121.046 25.999C119.304 25.999 117.823 25.4638 116.603 24.3924C115.384 23.321 114.775 21.9739 114.775 20.3511C114.775 18.3119 115.515 16.7717 116.996 15.7284C118.477 14.6861 120.63 14.164 123.456 14.164H125.233V13.168C125.233 11.4336 124.497 10.5664 123.029 10.5664C121.662 10.5664 120.978 11.2535 120.978 12.6268H115.22C115.22 10.8109 115.98 9.33504 117.501 8.20123C119.021 7.06743 120.961 6.50003 123.318 6.50003C125.677 6.50003 127.54 7.08453 128.907 8.25556C130.274 9.42558 130.974 11.0302 131.008 13.0694V21.3944C131.031 23.1207 131.293 24.4427 131.795 25.3572V25.6519H126.036V25.6519ZM145.018 12.1479L143.121 12.0091C141.31 12.0091 140.148 12.5886 139.635 13.7475V25.6519H133.877V6.84711H139.276L139.464 9.2626C140.432 7.42155 141.783 6.50003 143.514 6.50003C144.13 6.50003 144.664 6.56944 145.12 6.70827L145.018 12.1479V12.1479ZM154.655 2.17206V6.84711H157.697V10.9145H154.655V19.5171C154.655 20.2244 154.78 20.7163 155.031 20.994C155.281 21.2727 155.777 21.4115 156.518 21.4115C157.087 21.4115 157.566 21.3773 157.953 21.3079V25.496C156.916 25.832 155.834 25.999 154.706 25.999C152.724 25.999 151.26 25.5252 150.316 24.5745C149.369 23.6248 148.896 22.1821 148.896 20.2465V10.9145H146.538V6.84711H148.897V2.17206H154.654H154.655ZM167.787 11.0181C166.101 11.0181 165.098 12.1539 164.78 14.4246H170.59V13.9739C170.612 13.0342 170.38 12.3079 169.889 11.7908C169.399 11.2767 168.698 11.0181 167.787 11.0181V11.0181ZM168.437 26C165.6 26 163.304 25.1399 161.55 23.4195C159.796 21.6992 158.918 19.4598 158.918 16.7012V16.2153C158.918 14.2918 159.268 12.5946 159.97 11.1228C160.669 9.65194 161.693 8.5131 163.036 7.70727C164.381 6.90244 165.976 6.50003 167.821 6.50003C170.419 6.50003 172.469 7.31995 173.973 8.95878C175.476 10.5986 176.229 12.8843 176.229 15.8149V18.0926H164.78C164.984 19.1469 165.434 19.9749 166.13 20.5775C166.824 21.1801 167.724 21.4809 168.829 21.4809C170.652 21.4809 172.076 20.833 173.101 19.5342L175.733 22.6982C175.015 23.7063 173.998 24.5091 172.683 25.1047C171.367 25.7012 169.951 26 168.437 26V26ZM189.475 12.1479L187.578 12.0091C185.767 12.0091 184.605 12.5886 184.092 13.7475V25.6519H178.334V6.84711H183.733L183.921 9.2626C184.889 7.42155 186.24 6.50003 187.971 6.50003C188.587 6.50003 189.121 6.56944 189.577 6.70827L189.475 12.1479V12.1479Z" fill="#0AB463"/>
                            <mask id="mask1" mask-type="alpha" maskUnits="userSpaceOnUse" x="191" y="2" width="7" height="7">
                                <path d="M191.76 2.17908H198V8.38028H191.76V2.17908Z" fill="white"/>
                            </mask>
                            <g mask="url(#mask1)">
                                <path fill-rule="evenodd" clip-rule="evenodd" d="M194.426 5.12978H194.76C195.148 5.12978 195.463 4.99799 195.463 4.67807C195.463 4.39638 195.259 4.20825 194.815 4.20825C194.63 4.20825 194.5 4.22737 194.426 4.24548V5.12978V5.12978ZM194.408 6.87727H193.704V3.79477C194.089 3.72603 194.48 3.6947 194.871 3.70121C195.444 3.70121 195.704 3.79477 195.926 3.92656C196.093 4.05735 196.222 4.30181 196.222 4.60262C196.222 4.94165 195.962 5.20423 195.592 5.3169V5.35614C195.889 5.46882 196.056 5.69417 196.148 6.10765C196.241 6.57747 196.296 6.7656 196.371 6.87827H195.611C195.518 6.7656 195.463 6.48391 195.371 6.12676C195.315 5.78773 195.129 5.63783 194.742 5.63783H194.408V6.87827V6.87727ZM192.537 5.26057C192.537 6.6328 193.536 7.72334 194.907 7.72334C196.24 7.72334 197.221 6.6328 197.221 5.27968C197.221 3.90745 196.24 2.7988 194.889 2.7988C193.536 2.7988 192.537 3.90745 192.537 5.26057ZM197.999 5.26057C197.999 7.00906 196.647 8.38028 194.889 8.38028C193.147 8.38028 191.759 7.00906 191.759 5.26157C191.759 3.55131 193.148 2.17908 194.888 2.17908C196.647 2.17908 197.999 3.5503 197.999 5.26057Z" fill="#0AB463"/>
                            </g>
                        </svg>